ffmpeg started on 2025-06-05 at 19:55:28
Report written to "D:\Convert\FFMetrics\reports\psnr_report-6.txt"
Log level: 32
Command line:
ffmpeg -hide_banner -nostdin -i "G:\\\xc0\xed\xe8\xec\xe5\\\xce\xed\xe3\xee\xe8\xed\xe3\xe8\\!_36_\xce\xf1\xe5\xed\xfc_2024\\DreamCast\\\xcd\xe0\xef\xe0\xe4\xe5\xed\xe8\xe5 \xee\xe4\xe8\xed\xee\xf7\xea\xe8 \xed\xe0 \xe8\xed\xee\xe9 \xec\xe8\xf0\\[DC] Hitoribocchi no Isekai Kouryaku - 11_Telegram_HEVC.mkv" -i "G:\\\xc0\xed\xe8\xec\xe5\\\xce\xed\xe3\xee\xe8\xed\xe3\xe8\\!_36_\xce\xf1\xe5\xed\xfc_2024\\DreamCast\\\xcd\xe0\xef\xe0\xe4\xe5\xed\xe8\xe5 \xee\xe4\xe8\xed\xee\xf7\xea\xe8 \xed\xe0 \xe8\xed\xee\xe9 \xec\xe8\xf0\\[DC] Hitoribocchi no Isekai Kouryaku - 11_Telegram.mp4" -lavfi "[0:v]settb=AVTB,setpts=PTS-STARTPTS,format=pix_fmts=yuv420p10,fps=24000/1001,scale=1920:1080:flags=bicubic[main];[1:v]settb=AVTB,setpts=PTS-STARTPTS,format=pix_fmts=yuv420p,fps=24000/1001,scale=1920:1080:flags=bicubic[ref];[main][ref]psnr=eof_action=endall:stats_file='D\\:/Convert/FFMetrics/logs/psnr_logfile-6.txt'" -f null -
Input #0, matroska,webm, from 'G:\Аниме\Онгоинги\!_36_Осень_2024\DreamCast\Нападение одиночки на иной мир\[DC] Hitoribocchi no Isekai Kouryaku - 11_Telegram_HEVC.mkv':
  Metadata:
    COMPATIBLE_BRANDS: isomiso2avc1mp41
    MAJOR_BRAND     : isom
    MINOR_VERSION   : 512
    ENCODER         : Lavf61.7.100
  Duration: 00:23:50.10, start: -0.021000, bitrate: 1446 kb/s
  Stream #0:0: Video: hevc (Main 10), yuv420p10le(tv, bt709, progressive), 1920x1080 [SAR 1:1 DAR 16:9], 23.98 fps, 23.98 tbr, 1k tbn (default)
      Metadata:
        HANDLER_NAME    : VideoHandler
        VENDOR_ID       : [0][0][0][0]
        ENCODER         : Lavc61.19.100 libx265
        BPS             : 1249927
        DURATION        : 00:23:48.969708333
        NUMBER_OF_FRAMES: 34261
        NUMBER_OF_BYTES : 223263477
        _STATISTICS_WRITING_APP: mkvpropedit v66.0.0 ('Josie') 64-bit
        _STATISTICS_WRITING_DATE_UTC: 2025-05-31 11:50:54
        _STATISTICS_TAGS: BPS DURATION NUMBER_OF_FRAMES NUMBER_OF_BYTES
  Stream #0:1: Audio: aac (LC), 48000 Hz, stereo, fltp (default)
      Metadata:
        HANDLER_NAME    : SoundHandler
        VENDOR_ID       : [0][0][0][0]
        ENCODER         : Lavc61.19.100 aac
        BPS             : 193269
        DURATION        : 00:23:50.101000000
        NUMBER_OF_FRAMES: 67037
        NUMBER_OF_BYTES : 34549349
        _STATISTICS_WRITING_APP: mkvpropedit v66.0.0 ('Josie') 64-bit
        _STATISTICS_WRITING_DATE_UTC: 2025-05-31 11:50:54
        _STATISTICS_TAGS: BPS DURATION NUMBER_OF_FRAMES NUMBER_OF_BYTES
Input #1, mov,mp4,m4a,3gp,3g2,mj2, from 'G:\Аниме\Онгоинги\!_36_Осень_2024\DreamCast\Нападение одиночки на иной мир\[DC] Hitoribocchi no Isekai Kouryaku - 11_Telegram.mp4':
  Metadata:
    major_brand     : isom
    minor_version   : 512
    compatible_brands: isomiso2avc1mp41
    encoder         : Lavf61.1.100
  Duration: 00:23:50.08, start: 0.000000, bitrate: 3598 kb/s
  Stream #1:0[0x1](und): Video: h264 (High) (avc1 / 0x31637661), yuv420p(tv, bt709, progressive), 1920x1080 [SAR 1:1 DAR 16:9], 3452 kb/s, 23.98 fps, 23.98 tbr, 24k tbn (default)
      Metadata:
        handler_name    : VideoHandler
        vendor_id       : [0][0][0][0]
        encoder         : Lavc61.3.100 h264_qsv
  Stream #1:1[0x2](und): Audio: aac (HE-AACv2) (mp4a / 0x6134706D), 48000 Hz, stereo, fltp, 144 kb/s (default)
      Metadata:
        handler_name    : SoundHandler
        vendor_id       : [0][0][0][0]
Stream mapping:
  Stream #0:0 (hevc) -> settb:default
  Stream #1:0 (h264) -> settb:default
  psnr:default -> Stream #0:0 (wrapped_avframe)
  Stream #0:1 -> #0:1 (aac (native) -> pcm_s16le (native))
Output #0, null, to 'pipe:':
  Metadata:
    COMPATIBLE_BRANDS: isomiso2avc1mp41
    MAJOR_BRAND     : isom
    MINOR_VERSION   : 512
    encoder         : Lavf61.7.100
  Stream #0:0: Video: wrapped_avframe, yuv420p10le(tv, bt709, progressive), 1920x1080 [SAR 1:1 DAR 16:9], q=2-31, 200 kb/s, 23.98 fps, 23.98 tbn
      Metadata:
        encoder         : Lavc61.19.100 wrapped_avframe
  Stream #0:1: Audio: pcm_s16le, 48000 Hz, stereo, s16, 1536 kb/s (default)
      Metadata:
        HANDLER_NAME    : SoundHandler
        VENDOR_ID       : [0][0][0][0]
        _STATISTICS_TAGS: BPS DURATION NUMBER_OF_FRAMES NUMBER_OF_BYTES
        BPS             : 193269
        DURATION        : 00:23:50.101000000
        NUMBER_OF_FRAMES: 67037
        NUMBER_OF_BYTES : 34549349
        _STATISTICS_WRITING_APP: mkvpropedit v66.0.0 ('Josie') 64-bit
        _STATISTICS_WRITING_DATE_UTC: 2025-05-31 11:50:54
        encoder         : Lavc61.19.100 pcm_s16le
frame=  165 fps=0.0 q=-0.0 size=N/A time=00:00:06.88 bitrate=N/A speed=13.3x    frame=  363 fps=353 q=-0.0 size=N/A time=00:00:15.14 bitrate=N/A speed=14.7x    frame=  551 fps=355 q=-0.0 size=N/A time=00:00:22.98 bitrate=N/A speed=14.8x    frame=  727 fps=352 q=-0.0 size=N/A time=00:00:30.32 bitrate=N/A speed=14.7x    frame=  895 fps=346 q=-0.0 size=N/A time=00:00:37.32 bitrate=N/A speed=14.4x    frame= 1117 fps=358 q=-0.0 size=N/A time=00:00:46.58 bitrate=N/A speed=14.9x    frame= 1299 fps=358 q=-0.0 size=N/A time=00:00:54.17 bitrate=N/A speed=14.9x    frame= 1534 fps=371 q=-0.0 size=N/A time=00:01:03.98 bitrate=N/A speed=15.5x    frame= 1768 fps=379 q=-0.0 size=N/A time=00:01:13.74 bitrate=N/A speed=15.8x    frame= 2022 fps=391 q=-0.0 size=N/A time=00:01:24.33 bitrate=N/A speed=16.3x    frame= 2245 fps=395 q=-0.0 size=N/A time=00:01:33.63 bitrate=N/A speed=16.5x    frame= 2467 fps=398 q=-0.0 size=N/A time=00:01:42.89 bitrate=N/A speed=16.6x    frame= 2672 fps=398 q=-0.0 size=N/A time=00:01:51.44 bitrate=N/A speed=16.6x    frame= 2864 fps=396 q=-0.0 size=N/A time=00:01:59.45 bitrate=N/A speed=16.5x    frame= 3048 fps=393 q=-0.0 size=N/A time=00:02:07.12 bitrate=N/A speed=16.4x    frame= 3231 fps=391 q=-0.0 size=N/A time=00:02:14.75 bitrate=N/A speed=16.3x    frame= 3387 fps=385 q=-0.0 size=N/A time=00:02:21.26 bitrate=N/A speed=16.1x    frame= 3569 fps=384 q=-0.0 size=N/A time=00:02:28.85 bitrate=N/A speed=  16x    frame= 3763 fps=383 q=-0.0 size=N/A time=00:02:36.94 bitrate=N/A speed=  16x    frame= 3880 fps=376 q=-0.0 size=N/A time=00:02:41.82 bitrate=N/A speed=15.7x    frame= 4033 fps=372 q=-0.0 size=N/A time=00:02:48.20 bitrate=N/A speed=15.5x    frame= 4186 fps=368 q=-0.0 size=N/A time=00:02:54.59 bitrate=N/A speed=15.4x    frame= 4388 fps=370 q=-0.0 size=N/A time=00:03:03.01 bitrate=N/A speed=15.4x    frame= 4603 fps=371 q=-0.0 size=N/A time=00:03:11.98 bitrate=N/A speed=15.5x    frame= 4816 fps=373 q=-0.0 size=N/A time=00:03:20.86 bitrate=N/A speed=15.6x    frame= 5045 fps=376 q=-0.0 size=N/A time=00:03:30.41 bitrate=N/A speed=15.7x    frame= 5292 fps=379 q=-0.0 size=N/A time=00:03:40.72 bitrate=N/A speed=15.8x    frame= 5525 fps=382 q=-0.0 size=N/A time=00:03:50.43 bitrate=N/A speed=15.9x    frame= 5746 fps=384 q=-0.0 size=N/A time=00:03:59.65 bitrate=N/A speed=  16x    frame= 5935 fps=383 q=-0.0 size=N/A time=00:04:07.53 bitrate=N/A speed=  16x    frame= 6151 fps=385 q=-0.0 size=N/A time=00:04:16.54 bitrate=N/A speed=  16x    frame= 6361 fps=385 q=-0.0 size=N/A time=00:04:25.30 bitrate=N/A speed=16.1x    frame= 6612 fps=388 q=-0.0 size=N/A time=00:04:35.77 bitrate=N/A speed=16.2x    frame= 6840 fps=390 q=-0.0 size=N/A time=00:04:45.28 bitrate=N/A speed=16.3x    frame= 7080 fps=392 q=-0.0 size=N/A time=00:04:55.29 bitrate=N/A speed=16.4x    frame= 7349 fps=395 q=-0.0 size=N/A time=00:05:06.51 bitrate=N/A speed=16.5x    frame= 7612 fps=399 q=-0.0 size=N/A time=00:05:17.48 bitrate=N/A speed=16.6x    frame= 7878 fps=402 q=-0.0 size=N/A time=00:05:28.57 bitrate=N/A speed=16.8x    frame= 8143 fps=405 q=-0.0 size=N/A time=00:05:39.63 bitrate=N/A speed=16.9x    frame= 8354 fps=405 q=-0.0 size=N/A time=00:05:48.43 bitrate=N/A speed=16.9x    frame= 8598 fps=406 q=-0.0 size=N/A time=00:05:58.60 bitrate=N/A speed=16.9x    frame= 8828 fps=407 q=-0.0 size=N/A time=00:06:08.20 bitrate=N/A speed=  17x    frame= 9079 fps=409 q=-0.0 size=N/A time=00:06:18.66 bitrate=N/A speed=17.1x    frame= 9338 fps=411 q=-0.0 size=N/A time=00:06:29.47 bitrate=N/A speed=17.2x    frame= 9591 fps=413 q=-0.0 size=N/A time=00:06:40.02 bitrate=N/A speed=17.2x    frame= 9845 fps=415 q=-0.0 size=N/A time=00:06:50.61 bitrate=N/A speed=17.3x    frame=10070 fps=415 q=-0.0 size=N/A time=00:07:00.00 bitrate=N/A speed=17.3x    frame=10281 fps=415 q=-0.0 size=N/A time=00:07:08.80 bitrate=N/A speed=17.3x    frame=10517 fps=416 q=-0.0 size=N/A time=00:07:18.64 bitrate=N/A speed=17.3x    frame=10727 fps=416 q=-0.0 size=N/A time=00:07:27.40 bitrate=N/A speed=17.3x    frame=10960 fps=416 q=-0.0 size=N/A time=00:07:37.12 bitrate=N/A speed=17.4x    frame=11221 fps=418 q=-0.0 size=N/A time=00:07:48.00 bitrate=N/A speed=17.4x    frame=11491 fps=420 q=-0.0 size=N/A time=00:07:59.27 bitrate=N/A speed=17.5x    frame=11740 fps=421 q=-0.0 size=N/A time=00:08:09.65 bitrate=N/A speed=17.6x    frame=11998 fps=423 q=-0.0 size=N/A time=00:08:20.41 bitrate=N/A speed=17.6x    frame=12268 fps=425 q=-0.0 size=N/A time=00:08:31.67 bitrate=N/A speed=17.7x    frame=12519 fps=426 q=-0.0 size=N/A time=00:08:42.14 bitrate=N/A speed=17.8x    frame=12772 fps=427 q=-0.0 size=N/A time=00:08:52.69 bitrate=N/A speed=17.8x    frame=13007 fps=427 q=-0.0 size=N/A time=00:09:02.50 bitrate=N/A speed=17.8x    frame=13263 fps=428 q=-0.0 size=N/A time=00:09:13.17 bitrate=N/A speed=17.9x    frame=13460 fps=427 q=-0.0 size=N/A time=00:09:21.39 bitrate=N/A speed=17.8x    frame=13667 fps=427 q=-0.0 size=N/A time=00:09:30.02 bitrate=N/A speed=17.8x    frame=13829 fps=425 q=-0.0 size=N/A time=00:09:36.78 bitrate=N/A speed=17.7x    frame=14086 fps=426 q=-0.0 size=N/A time=00:09:47.50 bitrate=N/A speed=17.8x    frame=14302 fps=426 q=-0.0 size=N/A time=00:09:56.51 bitrate=N/A speed=17.8x    frame=14529 fps=426 q=-0.0 size=N/A time=00:10:05.98 bitrate=N/A speed=17.8x    frame=14777 fps=427 q=-0.0 size=N/A time=00:10:16.32 bitrate=N/A speed=17.8x    frame=15047 fps=429 q=-0.0 size=N/A time=00:10:27.58 bitrate=N/A speed=17.9x    frame=15306 fps=430 q=-0.0 size=N/A time=00:10:38.38 bitrate=N/A speed=17.9x    frame=15542 fps=430 q=-0.0 size=N/A time=00:10:48.23 bitrate=N/A speed=17.9x    frame=15783 fps=431 q=-0.0 size=N/A time=00:10:58.28 bitrate=N/A speed=  18x    frame=16056 fps=432 q=-0.0 size=N/A time=00:11:09.66 bitrate=N/A speed=  18x    frame=16315 fps=433 q=-0.0 size=N/A time=00:11:20.47 bitrate=N/A speed=18.1x    frame=16560 fps=434 q=-0.0 size=N/A time=00:11:30.69 bitrate=N/A speed=18.1x    frame=16826 fps=435 q=-0.0 size=N/A time=00:11:41.78 bitrate=N/A speed=18.1x    frame=17071 fps=435 q=-0.0 size=N/A time=00:11:52.00 bitrate=N/A speed=18.2x    frame=17335 fps=436 q=-0.0 size=N/A time=00:12:03.01 bitrate=N/A speed=18.2x    frame=17539 fps=436 q=-0.0 size=N/A time=00:12:11.52 bitrate=N/A speed=18.2x    frame=17801 fps=437 q=-0.0 size=N/A time=00:12:22.45 bitrate=N/A speed=18.2x    frame=18057 fps=437 q=-0.0 size=N/A time=00:12:33.12 bitrate=N/A speed=18.2x    frame=18324 fps=438 q=-0.0 size=N/A time=00:12:44.26 bitrate=N/A speed=18.3x    frame=18595 fps=439 q=-0.0 size=N/A time=00:12:55.56 bitrate=N/A speed=18.3x    frame=18825 fps=439 q=-0.0 size=N/A time=00:13:05.15 bitrate=N/A speed=18.3x    frame=19073 fps=440 q=-0.0 size=N/A time=00:13:15.50 bitrate=N/A speed=18.3x    frame=19329 fps=440 q=-0.0 size=N/A time=00:13:26.18 bitrate=N/A speed=18.4x    frame=19579 fps=441 q=-0.0 size=N/A time=00:13:36.60 bitrate=N/A speed=18.4x    frame=19805 fps=441 q=-0.0 size=N/A time=00:13:46.03 bitrate=N/A speed=18.4x    frame=19993 fps=440 q=-0.0 size=N/A time=00:13:53.87 bitrate=N/A speed=18.4x    frame=20195 fps=440 q=-0.0 size=N/A time=00:14:02.29 bitrate=N/A speed=18.3x    frame=20377 fps=439 q=-0.0 size=N/A time=00:14:09.89 bitrate=N/A speed=18.3x    frame=20534 fps=437 q=-0.0 size=N/A time=00:14:16.43 bitrate=N/A speed=18.2x    frame=20708 fps=436 q=-0.0 size=N/A time=00:14:23.69 bitrate=N/A speed=18.2x    frame=20956 fps=437 q=-0.0 size=N/A time=00:14:34.03 bitrate=N/A speed=18.2x    frame=21154 fps=436 q=-0.0 size=N/A time=00:14:42.29 bitrate=N/A speed=18.2x    frame=21400 fps=436 q=-0.0 size=N/A time=00:14:52.55 bitrate=N/A speed=18.2x    frame=21639 fps=437 q=-0.0 size=N/A time=00:15:02.52 bitrate=N/A speed=18.2x    frame=21891 fps=437 q=-0.0 size=N/A time=00:15:13.03 bitrate=N/A speed=18.2x    frame=22101 fps=437 q=-0.0 size=N/A time=00:15:21.79 bitrate=N/A speed=18.2x    frame=22334 fps=437 q=-0.0 size=N/A time=00:15:31.51 bitrate=N/A speed=18.2x    frame=22534 fps=437 q=-0.0 size=N/A time=00:15:39.85 bitrate=N/A speed=18.2x    frame=22756 fps=437 q=-0.0 size=N/A time=00:15:49.11 bitrate=N/A speed=18.2x    frame=22910 fps=435 q=-0.0 size=N/A time=00:15:55.53 bitrate=N/A speed=18.2x    frame=23080 fps=434 q=-0.0 size=N/A time=00:16:02.62 bitrate=N/A speed=18.1x    frame=23292 fps=434 q=-0.0 size=N/A time=00:16:11.47 bitrate=N/A speed=18.1x    frame=23469 fps=433 q=-0.0 size=N/A time=00:16:18.85 bitrate=N/A speed=18.1x    frame=23667 fps=433 q=-0.0 size=N/A time=00:16:27.11 bitrate=N/A speed=  18x    frame=23901 fps=433 q=-0.0 size=N/A time=00:16:36.87 bitrate=N/A speed=18.1x    frame=24120 fps=433 q=-0.0 size=N/A time=00:16:46.00 bitrate=N/A speed=  18x    frame=24363 fps=433 q=-0.0 size=N/A time=00:16:56.14 bitrate=N/A speed=18.1x    frame=24616 fps=434 q=-0.0 size=N/A time=00:17:06.69 bitrate=N/A speed=18.1x    frame=24879 fps=434 q=-0.0 size=N/A time=00:17:17.66 bitrate=N/A speed=18.1x    frame=25123 fps=435 q=-0.0 size=N/A time=00:17:27.83 bitrate=N/A speed=18.1x    frame=25388 fps=435 q=-0.0 size=N/A time=00:17:38.89 bitrate=N/A speed=18.2x    frame=25598 fps=435 q=-0.0 size=N/A time=00:17:47.64 bitrate=N/A speed=18.1x    frame=25817 fps=435 q=-0.0 size=N/A time=00:17:56.78 bitrate=N/A speed=18.1x    frame=26078 fps=436 q=-0.0 size=N/A time=00:18:07.66 bitrate=N/A speed=18.2x    frame=26310 fps=436 q=-0.0 size=N/A time=00:18:17.34 bitrate=N/A speed=18.2x    frame=26557 fps=436 q=-0.0 size=N/A time=00:18:27.64 bitrate=N/A speed=18.2x    frame=26805 fps=436 q=-0.0 size=N/A time=00:18:37.99 bitrate=N/A speed=18.2x    frame=27037 fps=437 q=-0.0 size=N/A time=00:18:47.66 bitrate=N/A speed=18.2x    frame=27297 fps=437 q=-0.0 size=N/A time=00:18:58.51 bitrate=N/A speed=18.2x    frame=27487 fps=437 q=-0.0 size=N/A time=00:19:06.43 bitrate=N/A speed=18.2x    frame=27723 fps=437 q=-0.0 size=N/A time=00:19:16.28 bitrate=N/A speed=18.2x    frame=27892 fps=436 q=-0.0 size=N/A time=00:19:23.32 bitrate=N/A speed=18.2x    frame=28107 fps=436 q=-0.0 size=N/A time=00:19:32.29 bitrate=N/A speed=18.2x    frame=28369 fps=436 q=-0.0 size=N/A time=00:19:43.22 bitrate=N/A speed=18.2x    frame=28629 fps=437 q=-0.0 size=N/A time=00:19:54.06 bitrate=N/A speed=18.2x    frame=28855 fps=437 q=-0.0 size=N/A time=00:20:03.49 bitrate=N/A speed=18.2x    frame=29080 fps=437 q=-0.0 size=N/A time=00:20:12.87 bitrate=N/A speed=18.2x    frame=29284 fps=437 q=-0.0 size=N/A time=00:20:21.38 bitrate=N/A speed=18.2x    frame=29500 fps=436 q=-0.0 size=N/A time=00:20:30.39 bitrate=N/A speed=18.2x    frame=29631 fps=435 q=-0.0 size=N/A time=00:20:35.85 bitrate=N/A speed=18.1x    frame=29796 fps=434 q=-0.0 size=N/A time=00:20:42.74 bitrate=N/A speed=18.1x    frame=30007 fps=434 q=-0.0 size=N/A time=00:20:51.54 bitrate=N/A speed=18.1x    frame=30220 fps=434 q=-0.0 size=N/A time=00:21:00.42 bitrate=N/A speed=18.1x    frame=30388 fps=433 q=-0.0 size=N/A time=00:21:07.43 bitrate=N/A speed=18.1x    frame=30588 fps=433 q=-0.0 size=N/A time=00:21:15.77 bitrate=N/A speed=  18x    frame=30768 fps=432 q=-0.0 size=N/A time=00:21:23.28 bitrate=N/A speed=  18x    frame=30995 fps=432 q=-0.0 size=N/A time=00:21:32.74 bitrate=N/A speed=  18x    frame=31188 fps=432 q=-0.0 size=N/A time=00:21:40.79 bitrate=N/A speed=  18x    frame=31452 fps=432 q=-0.0 size=N/A time=00:21:51.81 bitrate=N/A speed=  18x    frame=31689 fps=433 q=-0.0 size=N/A time=00:22:01.69 bitrate=N/A speed=  18x    frame=31931 fps=433 q=-0.0 size=N/A time=00:22:11.78 bitrate=N/A speed=  18x    frame=32148 fps=433 q=-0.0 size=N/A time=00:22:20.83 bitrate=N/A speed=  18x    frame=32367 fps=433 q=-0.0 size=N/A time=00:22:29.97 bitrate=N/A speed=  18x    frame=32582 fps=433 q=-0.0 size=N/A time=00:22:38.94 bitrate=N/A speed=  18x    frame=32795 fps=432 q=-0.0 size=N/A time=00:22:47.82 bitrate=N/A speed=  18x    frame=32986 fps=432 q=-0.0 size=N/A time=00:22:55.79 bitrate=N/A speed=  18x    frame=33167 fps=431 q=-0.0 size=N/A time=00:23:03.34 bitrate=N/A speed=  18x    frame=33324 fps=431 q=-0.0 size=N/A time=00:23:09.88 bitrate=N/A speed=  18x    frame=33546 fps=430 q=-0.0 size=N/A time=00:23:19.14 bitrate=N/A speed=  18x    frame=33803 fps=431 q=-0.0 size=N/A time=00:23:29.86 bitrate=N/A speed=  18x    frame=34051 fps=431 q=-0.0 size=N/A time=00:23:40.21 bitrate=N/A speed=  18x    [Parsed_psnr_10 @ 000001fe3fc19a80] PSNR y:48.133992 u:50.618893 v:50.448311 average:48.796416 min:38.854541 max:inf
[out#0/null @ 000001fe3fb84ac0] video:14722KiB audio:268148KiB subtitle:0KiB other streams:0KiB global headers:0KiB muxing overhead: unknown
frame=34261 fps=432 q=-0.0 Lsize=N/A time=00:23:48.96 bitrate=N/A speed=  18x    
